<svg xmlns="http://www.w3.org/2000/svg"  viewBox="0 0 50 50" width="50px" height="50px"><path d="M 25 2 C 12.317 2 2 12.317 2 25 C 2 37.683 12.317 48 25 48 C 37.683 48 48 37.683 48 25 C 48 12.317 37.683 2 25 2 z M 25 4 C 36.579 4 46 13.421 46 25 C 46 36.579 36.579 46 25 46 C 13.421 46 4 36.579 4 25 C 4 13.421 13.421 4 25 4 z M 27.570312 10.042969 C 19.819312 10.042969 12.931641 17.229875 12.931641 27.171875 C 12.931641 34.867875 17.326422 39.953125 24.107422 39.953125 C 31.304422 39.953125 35.466797 32.79275 35.466797 30.46875 C 35.466797 29.95475 35.203688 29.71875 34.929688 29.71875 C 34.739688 29.71875 34.572437 29.878516 34.398438 30.228516 C 32.435437 34.208516 29.045094 37.025391 25.121094 37.025391 C 20.584094 37.025391 17.775391 32.929484 17.775391 27.271484 C 17.775391 17.688484 23.114688 12.148438 27.804688 12.148438 C 29.996688 12.148438 31.335938 13.524797 31.335938 15.716797 C 31.335938 18.317797 29.857422 19.695281 29.857422 20.613281 C 29.857422 21.025281 30.113094 21.273438 30.621094 21.273438 C 32.662094 21.273438 35.056641 18.928234 35.056641 15.615234 C 35.056641 12.403234 32.260312 10.042969 27.570312 10.042969 z"/></svg>